# xmcd
#
# Track frame offsets:
#	150
#	14235
#	33369
#	54155
#	67986
#	87024
#	102953
#	120338
#	132618
#	151282
#
# Disc length: 2227 seconds
# Revision: 0
# Processed by: cddbd v1.5.2PL0 Copyright (c) Steve Scherf et al.
# Submitted via: dBpowerAMP V12.0
#
DISCID=7a08b10a
DTITLE=Mr. Nick and The Dirty Tricks - Oh Wow!
DYEAR=2012
DGENRE=Blues
TTITLE0=Oh Wow!
TTITLE1=Look, But Don't Touch
TTITLE2=Best Thing
TTITLE3=Worn Out
TTITLE4=Stripper
TTITLE5=Little Demon
TTITLE6=Exquisite Taste
TTITLE7=I'm Shakin'
TTITLE8=Hot Damn
TTITLE9=It's All Over Now
EXTD=
EXTT0=
EXTT1=
EXTT2=
EXTT3=
EXTT4=
EXTT5=
EXTT6=
EXTT7=
EXTT8=
EXTT9=
PLAYORDER=
